<?xml version="1.0" encoding="UTF-8"?>
<svg xmlns="http://www.w3.org/2000/svg" style="display:none">
  <symbol id="icon-speed" viewBox="0 0 24 24">
    <path d="M3 12a9 9 0 1 0 9-9v2a7 7 0 1 1-7 7H3z"/>
  </symbol>
  <symbol id="icon-stamina" viewBox="0 0 24 24">
    <path d="M12 21s-6-4.35-9-7.5C1.5 11.25 3 7 6 5c3-2 6-1 6-1s3-1 6 1c3 2 4.5 6.25 3 8.5C18 16.65 12 21 12 21z"/>
  </symbol>
  <symbol id="icon-power" viewBox="0 0 24 24">
    <path d="M12 2L3 14h6v8l9-12h-6z"/>
  </symbol>
  <symbol id="icon-guts" viewBox="0 0 24 24">
    <path d="M12 2c-3 0-5 2-5 4 0 4 5 8 5 12 0-4 5-8 5-12 0-2-2-4-5-4z"/>
  </symbol>
  <symbol id="icon-wit" viewBox="0 0 24 24">
    <path d="M12 2a7 7 0 0 0-7 7c0 4 7 9 7 9s7-5 7-9a7 7 0 0 0-7-7z"/>
  </symbol>
</svg>
